<svg viewBox="0 0 362.7 512">
  <path fill="#264de4" d="M362.8 100.6l-33.1 370.2L181.2 512 33 470.9 0 100.6z"/>
  <path fill="#2965f1" d="M301.4 447.2l28.3-316.3H181.4v349.6z"/>
  <path fill="#ebebeb" d="M75.7 268.2l4 45.4h101.7v-45.4zM181.4 176.3H67.5l4.2 45.4h109.7zM181.4 433.4v-47.2h-.2l-50.6-13.6-3.2-36.3H81.8l6.4 71.3 93 25.9z"/>
  <path d="M85.4 0h55v23h-32v23h32v23h-55zM151.4 0h55v20h-32v4h32v46h-55V49h32v-4h-32zM217.4 0h55v20h-32v4h32v46h-55V49h32v-4h-32z"/>
  <path fill="#fff" d="M237.2 313.6l-5.3 58.9-50.7 13.7v47.2l93-25.8.8-7.6 10.7-119.6 1-12.2 8.3-91.9H181.2v45.4h64l-4.1 46.5h-60v45.4z"/>
</svg>
